<svg xmlns="http://www.w3.org/2000/svg" xmlns:xlink="http://www.w3.org/1999/xlink" width="1125" height="730" viewBox="0 0 1125 730">
  <defs>
    <clipPath id="clip-path">
      <rect id="Rectangle_574" data-name="Rectangle 574" width="206.689" height="202.264" fill="none"/>
    </clipPath>
    <clipPath id="clip-path-2">
      <rect id="Rectangle_575" data-name="Rectangle 575" width="106.19" height="221.76" fill="none"/>
    </clipPath>
    <clipPath id="clip-path-3">
      <rect id="Rectangle_576" data-name="Rectangle 576" width="107.288" height="219.091" fill="none"/>
    </clipPath>
    <clipPath id="clip-path-4">
      <rect id="Rectangle_577" data-name="Rectangle 577" width="188.813" height="149.167" fill="none"/>
    </clipPath>
    <clipPath id="clip-path-5">
      <rect id="Rectangle_578" data-name="Rectangle 578" width="102.323" height="118.833" fill="#1a6cf3"/>
    </clipPath>
    <clipPath id="clip-path-6">
      <rect id="Rectangle_581" data-name="Rectangle 581" width="38.446" height="56.842" fill="none"/>
    </clipPath>
    <clipPath id="clip-path-7">
      <rect id="Rectangle_582" data-name="Rectangle 582" width="26.983" height="17.219" fill="none"/>
    </clipPath>
    <clipPath id="clip-path-8">
      <rect id="Rectangle_583" data-name="Rectangle 583" width="315.946" height="334.271" fill="none"/>
    </clipPath>
    <clipPath id="clip-path-9">
      <rect id="Rectangle_586" data-name="Rectangle 586" width="265.872" height="184.085" fill="none"/>
    </clipPath>
    <clipPath id="clip-path-10">
      <rect id="Rectangle_584" data-name="Rectangle 584" width="23.949" height="23.547" fill="none"/>
    </clipPath>
    <clipPath id="clip-path-11">
      <rect id="Rectangle_585" data-name="Rectangle 585" width="37.853" height="37.838" fill="none"/>
    </clipPath>
    <clipPath id="clip-path-12">
      <path id="Path_2520" data-name="Path 2520" d="M211.549,332.4h0Z" transform="translate(-211.549 -332.399)" fill="none"/>
    </clipPath>
    <clipPath id="clip-path-13">
      <rect id="Rectangle_587" data-name="Rectangle 587" width="23.947" height="23.547" fill="none"/>
    </clipPath>
    <clipPath id="clip-path-15">
      <rect id="Rectangle_589" data-name="Rectangle 589" width="239.111" height="2.357" fill="none"/>
    </clipPath>
    <clipPath id="clip-path-16">
      <rect id="Rectangle_590" data-name="Rectangle 590" width="133.999" height="40.666" fill="none" stroke="#fff" stroke-width="1"/>
    </clipPath>
    <clipPath id="clip-Contactus_banner">
      <rect width="1125" height="730"/>
    </clipPath>
  </defs>
  <g id="Contactus_banner" clip-path="url(#clip-Contactus_banner)">
    <rect width="1125" height="730" fill="#fff"/>
    <g id="Group_985" data-name="Group 985" transform="translate(-13332.9 55.017)">
      <path id="Path_2392" data-name="Path 2392" d="M988.03,720.37a61.933,61.933,0,0,1-8.12,3.667c-12.145,4.524-25.456,5.644-38.7,5.906-3.905.1-7.811.1-11.668.1l-857.894-.929q-.5-167.776-1.024-335.528c-.071-29.528.619-61.509,18.741-84.823,17.407-22.408,46.674-31.314,69.844-47.65C222.127,216.744,241.892,133.8,306.568,90.773,359.6,55.505,427.8,45.218,490.93,56.482A266.912,266.912,0,0,1,554.3,75.961c48.1,21.765,81.179,63.891,108.779,107.255,29.576,46.46,29.79,97.444,40.078,150.047,3.429,17.622,8.573,35.244,18.479,50.222,25.956,39.244,91.347,47.984,132.806,64.01,81.941,31.648,168.216,93.491,172.336,189.863,1.357,32.172-10.383,67.772-38.744,83.013" transform="translate(13430.454 -57.998)" fill="#2394bc"/>
      <rect id="Rectangle_573" data-name="Rectangle 573" width="956.256" height="677.912" transform="translate(13501.076 -5.871)" fill="none"/>
      <path id="Path_2393" data-name="Path 2393" d="M419.948,376.992c11.564-8.082,23.542-16.622,30.2-29.059,6.165-11.528,13.762-23.911,17.029-36.568a105.8,105.8,0,0,1,16.924-35.12c23.956-33.281,37.668-22.6,42.083-17.388,4.336,5.125,4.353,12.276.464,22.113-3.129,7.911-24.394,42.066-10.159,41.823,16.474-.286,32.577-38.6,40.256-50.358,11.492-17.586,28.092-34.5,48.362-41.375,9.992-3.391,22.6-3.574,29.431,4.467,4.089,4.813,5.134,11.573,4.617,17.869-1.56,18.958-14.752,33.627-27.9,46.143-5.5,5.232-40.444,25.283-20.989,30.326,4.646,1.205,53.27-11.409,44,19.567-3.265,10.909-19.484,16.493-43.678,21.777-15.109,3.3-67.075,6.461-69.925,18.858s28.69,4.348,16.6,24.48c-6.773,11.278-26.228,13.05-38.849,12.921-6-.06-11.976-1.317-17.969-.986-7.111.391-17.341,4.384-15.9,13.24.626,3.867,3.732,7.015,4.232,10.9.507,3.946-1.893,7.842-5.17,10.1s-7.289,3.158-11.23,3.71c-25.266,3.548-51.11-5.351-72.073-19.894s-37.649-34.384-52.963-54.789" transform="translate(13785.054 186.117)" fill="#b0eeff"/>
      <g id="Group_934" data-name="Group 934" transform="translate(14194.46 435.094)" opacity="0.25">
        <g id="Group_933" data-name="Group 933">
          <g id="Group_932" data-name="Group 932" clip-path="url(#clip-path)">
            <path id="Path_2394" data-name="Path 2394" d="M557.166,237.962S478.623,352.4,368.861,397.256" transform="translate(-352.044 -236.393)" fill="none" stroke="#fff" stroke-linecap="round" stroke-linejoin="round" stroke-width="1.317"/>
            <path id="Path_2395" data-name="Path 2395" d="M501.723,278.878s-56.754,14.6-93.664,4.179" transform="translate(-297.899 -179.875)" fill="none" stroke="#fff" stroke-linecap="round" stroke-linejoin="round" stroke-width="1.317"/>
            <path id="Path_2396" data-name="Path 2396" d="M423.022,246.821c-10.778,18.677-36.41,72.754-29.345,107.312" transform="translate(-319.442 -224.156)" fill="none" stroke="#fff" stroke-linecap="round" stroke-linejoin="round" stroke-width="1.317"/>
            <path id="Path_2397" data-name="Path 2397" d="M452.8,311.181s-22.9,7.134-76.917-9.461" transform="translate(-342.347 -148.323)" fill="none" stroke="#fff" stroke-linecap="round" stroke-linejoin="round" stroke-width="1.317"/>
            <path id="Path_2398" data-name="Path 2398" d="M408.652,339.623s-28.614-6.9-46.2-31.1" transform="translate(-360.89 -138.928)" fill="none" stroke="#fff" stroke-linecap="round" stroke-linejoin="round" stroke-width="1.317"/>
          </g>
        </g>
      </g>
      <path id="Path_2399" data-name="Path 2399" d="M303.742,364.783c1.919-11.561,3.81-23.639.29-34.82-3.26-10.359-6.2-22.068-11.818-31.362A87.962,87.962,0,0,1,281.2,268.142c-5.844-33.562,8.468-35.5,14.128-35.091,5.563.4,9.821,4.546,13.4,12.573,2.879,6.456,10.8,38.932,18.929,30.336,9.406-9.949-3.989-41.773-6.506-53.168-3.767-17.043-4.165-36.729,3.532-52.763,3.793-7.9,11.011-15.5,19.755-14.881,5.234.369,9.856,3.677,13.292,7.644,10.354,11.942,11.4,28.3,11.187,43.383-.088,6.306-8.487,38.708,5.813,30.088,3.415-2.06,24.18-38.265,37.187-14.759,4.582,8.28-1.529,21.156-12.45,38.594-6.82,10.89-35.144,43.583-29.438,52.482s19.255-14.512,24.187,4.365c2.76,10.575-7.494,23.161-14.9,30.578-3.524,3.529-7.742,6.346-11.028,10.1-3.9,4.451-7.475,12.845-1.381,17.138,2.662,1.874,6.337,1.86,8.935,3.822,2.638,1.993,3.555,5.682,3,8.942s-2.362,6.163-4.325,8.825c-12.573,17.065-32.879,27.242-53.7,31.236S278.52,429.96,257.5,427.2" transform="translate(13688.594 84.261)" fill="#b0eeff"/>
      <g id="Group_937" data-name="Group 937" transform="translate(13982.539 258.715)" opacity="0.25">
        <g id="Group_936" data-name="Group 936">
          <g id="Group_935" data-name="Group 935" clip-path="url(#clip-path-2)">
            <path id="Path_2400" data-name="Path 2400" d="M301.475,163.783s22.313,113.141-14.833,204.389" transform="translate(-253.694 -162.478)" fill="none" stroke="#fff" stroke-linecap="round" stroke-linejoin="round" stroke-width="1.094"/>
            <path id="Path_2401" data-name="Path 2401" d="M346.985,187.883s-24.311,42.185-51.948,58.049" transform="translate(-242.098 -129.188)" fill="none" stroke="#fff" stroke-linecap="round" stroke-linejoin="round" stroke-width="1.094"/>
            <path id="Path_2402" data-name="Path 2402" d="M273.353,194.252c4.827,17.255,22.046,63.9,46.671,79.786" transform="translate(-272.05 -120.391)" fill="none" stroke="#fff" stroke-linecap="round" stroke-linejoin="round" stroke-width="1.094"/>
            <path id="Path_2403" data-name="Path 2403" d="M339.176,226.75S330.1,244.5,288.859,266.928" transform="translate(-250.632 -75.501)" fill="none" stroke="#fff" stroke-linecap="round" stroke-linejoin="round" stroke-width="1.094"/>
            <path id="Path_2404" data-name="Path 2404" d="M330.412,251.615S309.685,264.6,285.1,260.974" transform="translate(-255.827 -41.154)" fill="none" stroke="#fff" stroke-linecap="round" stroke-linejoin="round" stroke-width="1.094"/>
          </g>
        </g>
      </g>
      <path id="Path_2405" data-name="Path 2405" d="M319.635,346.318c4.655-21.715,83.713-168.678,168.931-132.43,50.62,21.532,41.516,100.82-37.551,160.72,15.519-12.361,33.441-26.38,54.616-29.843,11.44-1.869,25.44,2.467,34.01,8.982,7.625,5.8,9.866,14.955,10.218,23.5,1.281,31.069-18.384,62.171-50.024,79.119,17.488-8.047,32.641-18.124,52.6-19.536,6.484-.46,17.477,2.6,20.479,7.356,3.265,5.179,3.036,24.587-35.46,39.08,156.919-24.511,166.073,30.581,109.667,30.581H274.352" transform="translate(13711.869 157.543)" fill="#77c5e1"/>
      <path id="Path_2406" data-name="Path 2406" d="M228.382,349.956c-3.446-11.2-6.93-22.918-4.934-34.47,1.85-10.7,3.2-22.7,7.53-32.657a87.954,87.954,0,0,0,6.856-31.657c1.312-34.043-13.128-34.053-18.684-32.893-5.46,1.141-9.125,5.815-11.6,14.247-1.993,6.782-5.513,40.028-14.714,32.593-10.649-8.606-1.619-41.935-.645-53.563,1.46-17.393-.774-36.956-10.54-51.82-4.815-7.325-12.981-13.888-21.563-12.109-5.139,1.062-9.278,4.958-12.157,9.347-8.666,13.216-7.52,29.569-5.3,44.488.929,6.237,13.578,37.23-1.746,30.593-3.66-1.584-29.069-34.7-38.825-9.663-3.434,8.816,4.339,20.76,17.491,36.587,8.211,9.882,40.642,38.506,36.175,48.086s-21.02-11.814-23.387,7.554c-1.326,10.849,10.516,21.951,18.848,28.316,3.965,3.027,8.518,5.256,12.278,8.535,4.458,3.891,9.118,11.733,3.653,16.8-2.388,2.215-6.032,2.691-8.344,4.982-2.35,2.327-2.767,6.106-1.776,9.259s3.162,5.8,5.463,8.173c14.738,15.233,36.217,22.611,57.383,23.792s42.235-3.286,62.7-8.832" transform="translate(13472.755 73.513)" fill="#b0eeff"/>
      <g id="Group_940" data-name="Group 940" transform="translate(13588.031 239.9)" opacity="0.25">
        <g id="Group_939" data-name="Group 939">
          <g id="Group_938" data-name="Group 938" clip-path="url(#clip-path-3)">
            <path id="Path_2407" data-name="Path 2407" d="M128.438,155.881s-7.018,115.108,41.971,200.581" transform="translate(-78.197 -154.578)" fill="none" stroke="#fff" stroke-linecap="round" stroke-linejoin="round" stroke-width="1.094"/>
            <path id="Path_2408" data-name="Path 2408" d="M107.685,182.965s29.721,38.565,59.228,50.6" transform="translate(-106.382 -117.167)" fill="none" stroke="#fff" stroke-linecap="round" stroke-linejoin="round" stroke-width="1.094"/>
            <path id="Path_2409" data-name="Path 2409" d="M172.3,183.474c-2.481,17.743-13.324,66.27-35.61,85.3" transform="translate(-66.316 -116.464)" fill="none" stroke="#fff" stroke-linecap="round" stroke-linejoin="round" stroke-width="1.094"/>
            <path id="Path_2410" data-name="Path 2410" d="M119.672,220.569s11.361,16.376,55.228,33.105" transform="translate(-89.825 -65.224)" fill="none" stroke="#fff" stroke-linecap="round" stroke-linejoin="round" stroke-width="1.094"/>
            <path id="Path_2411" data-name="Path 2411" d="M128.8,244.43s22.272,10.1,46.157,3.229" transform="translate(-77.217 -32.264)" fill="none" stroke="#fff" stroke-linecap="round" stroke-linejoin="round" stroke-width="1.094"/>
          </g>
        </g>
      </g>
      <path id="Path_2412" data-name="Path 2412" d="M359.1,346.088c-4.656-21.715-83.713-168.681-168.931-132.43-50.62,21.532-41.516,100.82,37.551,160.72C212.2,362.014,194.276,348,173.1,344.535c-11.44-1.869-25.44,2.467-34.01,8.982-7.623,5.8-9.866,14.955-10.218,23.5-1.281,31.069,18.384,62.172,50.022,79.119-17.486-8.046-32.641-18.124-52.6-19.536-6.484-.46-17.477,2.6-20.479,7.356-3.265,5.179-3.036,24.587,35.46,39.08C-15.643,458.522-24.8,513.613,31.61,513.613H404.379" transform="translate(13332.9 157.224)" fill="#77c5e1"/>
      <path id="Path_2413" data-name="Path 2413" d="M281.81,347.794c-10.416-5.375-21.225-11.083-28.081-20.589-6.353-8.809-13.978-18.165-18.069-28.226a87.881,87.881,0,0,0-17.822-27.047c-23.408-24.756-33.517-14.443-36.575-9.661-3.005,4.7-2.229,10.587,2.062,18.257,3.451,6.17,24.742,31.943,12.992,33.315-13.6,1.588-31.1-28.178-38.72-37.011-11.409-13.212-26.949-25.3-44.4-28.721-8.6-1.686-19-.443-23.739,6.934-2.834,4.415-2.948,10.1-1.826,15.224,3.381,15.44,15.869,26.061,28.081,34.91,5.108,3.7,36.1,16.345,20.641,22.651-3.693,1.507-45.128-3.5-34.067,20.982,3.9,8.62,17.869,11.423,38.377,13.1,12.807,1.048,55.947-2.1,59.666,7.794s-23.144,6.756-10.964,21.994c6.825,8.537,23.042,7.844,33.419,6.344,4.936-.714,9.716-2.41,14.688-2.8,5.9-.462,14.764,1.693,14.562,9.144-.091,3.255-2.3,6.191-2.279,9.447.017,3.308,2.427,6.249,5.375,7.746s6.351,1.793,9.659,1.815c21.2.126,41.494-10.061,57.147-24.359s27.2-32.476,37.551-50.975" transform="translate(13453.031 211.803)" fill="#b0eeff"/>
      <g id="Group_943" data-name="Group 943" transform="translate(13559.321 475.698)" opacity="0.25">
        <g id="Group_942" data-name="Group 942">
          <g id="Group_941" data-name="Group 941" clip-path="url(#clip-path-4)">
            <path id="Path_2414" data-name="Path 2414" d="M95.629,254.9s77.338,85.544,172.684,110.338" transform="translate(-94.326 -253.598)" fill="none" stroke="#fff" stroke-linecap="round" stroke-linejoin="round" stroke-width="1.094"/>
            <path id="Path_2415" data-name="Path 2415" d="M100.6,292.548s48.353,5.741,77.593-6.92" transform="translate(-87.454 -211.155)" fill="none" stroke="#fff" stroke-linecap="round" stroke-linejoin="round" stroke-width="1.094"/>
            <path id="Path_2416" data-name="Path 2416" d="M131.722,257.478c10.942,14.188,38.032,55.882,36.039,85.12" transform="translate(-44.47 -250.039)" fill="none" stroke="#fff" stroke-linecap="round" stroke-linejoin="round" stroke-width="1.094"/>
            <path id="Path_2417" data-name="Path 2417" d="M135.86,315.733s19.651,3.339,62.291-16.3" transform="translate(-38.754 -192.09)" fill="none" stroke="#fff" stroke-linecap="round" stroke-linejoin="round" stroke-width="1.094"/>
            <path id="Path_2418" data-name="Path 2418" d="M159.295,334.268s22.8-8.851,34.6-30.721" transform="translate(-6.383 -186.403)" fill="none" stroke="#fff" stroke-linecap="round" stroke-linejoin="round" stroke-width="1.094"/>
          </g>
        </g>
      </g>
      <g id="Group_946" data-name="Group 946" transform="translate(14149.546 232.039)" opacity="0.4">
        <g id="Group_945" data-name="Group 945">
          <g id="Group_944" data-name="Group 944" clip-path="url(#clip-path-5)">
            <path id="Path_2419" data-name="Path 2419" d="M343.238,175.97s-.791,83.915,82.2,94.745c24.468,2.56,26.43-28.259,5.094-41.156s-45.031-12.495-57.592-49.153c-11.025-32.174-32.805-41.347-29.7-4.436" transform="translate(-342.938 -152.033)" fill="#1a6cf3"/>
          </g>
        </g>
      </g>
      <path id="Path_2420" data-name="Path 2420" d="M334.04,60.287l4.208.838.1.019a1.633,1.633,0,0,0,.648-3.2l-4.408-.907a1.647,1.647,0,0,0-.664,3.227l.01,0Z" transform="translate(13792.339 -51.261)" fill="#1a6cf3"/>
      <path id="Path_2421" data-name="Path 2421" d="M338.23,61.28c2.729.874,5.42,1.886,8.063,3.015a1.583,1.583,0,0,0,1.253-2.908c-2.722-1.181-5.5-2.248-8.323-3.174a1.613,1.613,0,0,0-1,3.065Z" transform="translate(13798.557 -49.701)" fill="#1a6cf3"/>
      <path id="Path_2422" data-name="Path 2422" d="M343.925,63.579q3.851,1.943,7.534,4.2a1.531,1.531,0,0,0,1.61-2.605q-3.772-2.347-7.73-4.379a1.56,1.56,0,1,0-1.424,2.777Z" transform="translate(13806.785 -46.257)" fill="#1a6cf3"/>
      <path id="Path_2423" data-name="Path 2423" d="M349.233,66.716q3.529,2.486,6.83,5.27a1.48,1.48,0,0,0,1.919-2.253q-3.376-2.9-7-5.479a1.51,1.51,0,0,0-1.755,2.458Z" transform="translate(13814.419 -41.633)" fill="#1a6cf3"/>
      <path id="Path_2424" data-name="Path 2424" d="M353.989,70.614a76.811,76.811,0,0,1,5.791,6.349A1.428,1.428,0,0,0,362,75.169a78.759,78.759,0,0,0-5.965-6.63,1.458,1.458,0,1,0-2.057,2.067Z" transform="translate(13821.27 -35.91)" fill="#1a6cf3"/>
      <path id="Path_2425" data-name="Path 2425" d="M357.9,75.271a53.2,53.2,0,0,1,4.12,7.468,1.377,1.377,0,0,0,2.517-1.117,56.13,56.13,0,0,0-4.279-7.887,1.407,1.407,0,1,0-2.362,1.529Z" transform="translate(13826.953 -29.037)" fill="#1a6cf3"/>
      <path id="Path_2426" data-name="Path 2426" d="M360.44,80.654a37.781,37.781,0,0,1,1.4,8.325,1.326,1.326,0,0,0,2.648-.129,40.217,40.217,0,0,0-1.436-8.925,1.355,1.355,0,1,0-2.612.719Z" transform="translate(13830.712 -20.974)" fill="#1a6cf3"/>
      <path id="Path_2427" data-name="Path 2427" d="M362.149,86.46a36.09,36.09,0,0,1-2.081,8.177,1.275,1.275,0,0,0,2.379.917,38.919,38.919,0,0,0,2.288-8.747,1.3,1.3,0,0,0-2.584-.357Z" transform="translate(13830.152 -12.138)" fill="#1a6cf3"/>
      <path id="Path_2428" data-name="Path 2428" d="M361.856,92.017a50.619,50.619,0,0,1-4.867,7.018,1.225,1.225,0,0,0,1.888,1.56,53.471,53.471,0,0,0,5.151-7.33,1.252,1.252,0,0,0-2.167-1.255Z" transform="translate(13825.634 -3.767)" fill="#1a6cf3"/>
      <path id="Path_2429" data-name="Path 2429" d="M359.08,96.791a59.465,59.465,0,0,1-6.549,5.548,1.168,1.168,0,0,0,1.372,1.891,61.627,61.627,0,0,0,6.851-5.72,1.2,1.2,0,0,0-1.667-1.726Z" transform="translate(13819.198 3.225)" fill="#1a6cf3"/>
      <path id="Path_2430" data-name="Path 2430" d="M354.884,100.483a58.947,58.947,0,0,1-7.737,3.724,1.113,1.113,0,0,0,.807,2.074,61.067,61.067,0,0,0,8.063-3.808,1.146,1.146,0,0,0-1.126-2Z" transform="translate(13811.445 8.589)" fill="#1a6cf3"/>
      <path id="Path_2431" data-name="Path 2431" d="M349.606,102.831a57.068,57.068,0,0,1-8.437,1.61,1.058,1.058,0,0,0,.231,2.1,59.188,59.188,0,0,0,8.766-1.607,1.089,1.089,0,1,0-.553-2.107Z" transform="translate(13802.869 11.99)" fill="#1a6cf3"/>
      <path id="Path_2432" data-name="Path 2432" d="M343.561,104.079a48.473,48.473,0,0,1-8.535-.748,1.005,1.005,0,0,0-.369,1.976,50.3,50.3,0,0,0,8.892.841,1.035,1.035,0,1,0,.021-2.069Z" transform="translate(13794.041 12.709)" fill="#1a6cf3"/>
      <path id="Path_2433" data-name="Path 2433" d="M336.838,105.247a22.544,22.544,0,0,1-7.161-4.3.954.954,0,0,0-1.293,1.4,24.427,24.427,0,0,0,7.742,4.727.983.983,0,0,0,.719-1.829Z" transform="translate(13786.085 9.098)" fill="#1a6cf3"/>
      <path id="Path_2434" data-name="Path 2434" d="M329.443,103.9a20.81,20.81,0,0,1-2.122-8.056.9.9,0,0,0-1.8.117,22.571,22.571,0,0,0,2.26,8.782.93.93,0,1,0,1.662-.836Z" transform="translate(13782.55 1.225)" fill="#1a6cf3"/>
      <path id="Path_2435" data-name="Path 2435" d="M327.451,97.781a16.75,16.75,0,0,1,3.808-7.315.846.846,0,0,0-.071-1.2.855.855,0,0,0-1.2.071,18.464,18.464,0,0,0-4.248,8.037.879.879,0,1,0,1.707.417Z" transform="translate(13782.817 -6.985)" fill="#1a6cf3"/>
      <path id="Path_2436" data-name="Path 2436" d="M330.81,90.837a31.884,31.884,0,0,1,7.8-3.41.8.8,0,0,0-.445-1.526,33.41,33.41,0,0,0-8.225,3.531.826.826,0,1,0,.86,1.41Z" transform="translate(13788.11 -11.388)" fill="#1a6cf3"/>
      <path id="Path_2437" data-name="Path 2437" d="M336.513,87.125a55.394,55.394,0,0,1,8.616-.507.743.743,0,0,0,.031-1.486,57.108,57.108,0,0,0-8.856.46.773.773,0,0,0,.2,1.534Z" transform="translate(13796.517 -12.429)" fill="#1a6cf3"/>
      <path id="Path_2438" data-name="Path 2438" d="M342.709,86.763a69.033,69.033,0,0,1,8.523,1.567.691.691,0,0,0,.338-1.341,71.093,71.093,0,0,0-8.687-1.655.72.72,0,1,0-.179,1.429Z" transform="translate(13805.411 -12.134)" fill="#1a6cf3"/>
      <path id="Path_2439" data-name="Path 2439" d="M348.8,88.12a71.037,71.037,0,0,1,8,3.343.638.638,0,0,0,.567-1.143,71.769,71.769,0,0,0-8.127-3.46.667.667,0,1,0-.448,1.257Z" transform="translate(13814.081 -10.072)" fill="#1a6cf3"/>
      <path id="Path_2440" data-name="Path 2440" d="M354.461,90.752a65.977,65.977,0,0,1,7.075,5.02.585.585,0,0,0,.741-.9,67.225,67.225,0,0,0-7.168-5.16.615.615,0,1,0-.65,1.043Z" transform="translate(13822.119 -6.217)" fill="#1a6cf3"/>
      <path id="Path_2441" data-name="Path 2441" d="M359.384,94.588a61.517,61.517,0,0,1,5.68,6.558.532.532,0,0,0,.852-.636,62.606,62.606,0,0,0-5.732-6.715.563.563,0,0,0-.8.791Z" transform="translate(13829.099 -0.67)" fill="#1a6cf3"/>
      <path id="Path_2442" data-name="Path 2442" d="M363.232,99.505a61.362,61.362,0,0,1,3.879,7.768.48.48,0,0,0,.888-.364,62.237,62.237,0,0,0-3.889-7.92.51.51,0,1,0-.881.514Z" transform="translate(13834.543 6.386)" fill="#1a6cf3"/>
      <path id="Path_2443" data-name="Path 2443" d="M365.748,105.241a68.807,68.807,0,0,1,1.953,8.475.427.427,0,0,0,.843-.136,69.52,69.52,0,0,0-1.919-8.6.457.457,0,0,0-.876.257Z" transform="translate(13838.09 14.559)" fill="#1a6cf3"/>
      <path id="Path_2444" data-name="Path 2444" d="M366.885,111.439a63.5,63.5,0,0,1,.119,8.7.375.375,0,0,0,.341.4.381.381,0,0,0,.4-.35,63.584,63.584,0,0,0-.057-8.809.4.4,0,1,0-.8.04v.019Z" transform="translate(13839.686 23.321)" fill="#b0eeff"/>
      <path id="Path_2445" data-name="Path 2445" d="M368.129,117.7a42.619,42.619,0,0,1-2.686,8.251.318.318,0,0,0,.581.26,43.251,43.251,0,0,0,2.786-8.361.349.349,0,1,0-.681-.152Z" transform="translate(13837.657 32.205)" fill="#1a6cf3"/>
      <path id="Path_2446" data-name="Path 2446" d="M367.258,123.5a48.911,48.911,0,0,1-5.318,6.884.262.262,0,0,0,.383.357,49.573,49.573,0,0,0,5.429-6.925.294.294,0,0,0-.493-.319Z" transform="translate(13832.759 40.404)" fill="#1a6cf3"/>
      <path id="Path_2447" data-name="Path 2447" d="M364.016,128.249a68.563,68.563,0,0,1-6.961,5.263.206.206,0,0,0,.226.345,69.613,69.613,0,0,0,7.044-5.244.238.238,0,1,0-.307-.364Z" transform="translate(13825.98 47.076)" fill="#1a6cf3"/>
      <path id="Path_2448" data-name="Path 2448" d="M359.242,131.869c-2.546,1.417-5.163,2.712-7.823,3.9a.148.148,0,0,0-.079.2.155.155,0,0,0,.2.079q4.019-1.761,7.875-3.86a.182.182,0,1,0-.174-.319Z" transform="translate(13818.196 52.12)" fill="#1a6cf3"/>
      <path id="Path_2449" data-name="Path 2449" d="M353.658,134.55q-4.09,1.561-8.275,2.846a.092.092,0,0,0-.062.119.088.088,0,0,0,.114.062q4.2-1.261,8.313-2.789a.131.131,0,0,0,.071-.164A.126.126,0,0,0,353.658,134.55Z" transform="translate(13809.892 55.846)" fill="#1a6cf3"/>
      <path id="Path_2450" data-name="Path 2450" d="M347.66,136.5l-8.53,1.977a.04.04,0,1,0,.014.079l8.551-1.917a.071.071,0,1,0-.031-.138Z" transform="translate(13801.3 58.543)" fill="#b0eeff"/>
      <path id="Path_2451" data-name="Path 2451" d="M338.911,137.817l-4.353.593,4.358-.562a.016.016,0,0,0,.014-.017C338.928,137.822,338.921,137.815,338.911,137.817Z" transform="translate(13795.032 60.369)" fill="#b0eeff"/>
      <path id="Path_2452" data-name="Path 2452" d="M358.941,38.423c-.343-.362,27.392,5.129,27.392,5.129l8.394,40.092-21.687-24.2-31.15,5.377L285.832,41.426Z" transform="translate(13727.727 -76.949)" fill="#2394bc"/>
      <path id="Path_2453" data-name="Path 2453" d="M285.832,39.674l108.9,42.218-21.689-24.2Z" transform="translate(13727.725 -75.198)" fill="#b0eeff"/>
      <path id="Path_2454" data-name="Path 2454" d="M285.832,49.894,402.292,32.275,386.335,52.021l-100.5-2.127L373.04,67.911l-26.754,34.6Z" transform="translate(13727.725 -85.418)" fill="#77c5e1"/>
      <rect id="Rectangle_579" data-name="Rectangle 579" width="194.013" height="251.922" transform="translate(14013.556 -53.143)" fill="none"/>
      <line id="Line_94" data-name="Line 94" x2="194.037" transform="translate(14295.264 671.17)" fill="none" stroke="#b0eeff" stroke-linecap="round" stroke-linejoin="round" stroke-width="1"/>
      <line id="Line_95" data-name="Line 95" x2="115.063" transform="translate(14144.201 671.17)" fill="none" stroke="#b0eeff" stroke-linecap="round" stroke-linejoin="round" stroke-width="1"/>
      <line id="Line_96" data-name="Line 96" x2="529.603" transform="translate(13619.197 671.17)" fill="none" stroke="#b0eeff" stroke-linecap="round" stroke-linejoin="round" stroke-width="1"/>
      <line id="Line_97" data-name="Line 97" x2="86.013" transform="translate(13501.684 671.17)" fill="none" stroke="#b0eeff" stroke-linecap="round" stroke-linejoin="round" stroke-width="1"/>
      <path id="Path_2455" data-name="Path 2455" d="M227.969,73.622H223.7V69.355a1.247,1.247,0,1,0-2.493,0v4.267h-4.267a1.248,1.248,0,1,0,0,2.5h4.267v4.265a1.247,1.247,0,1,0,2.493,0V76.118h4.267a1.248,1.248,0,0,0,0-2.5" transform="translate(13630.842 -35.923)" fill="#9ddbf4"/>
      <path id="Path_2456" data-name="Path 2456" d="M379.032,239.218h-4.267v-4.267a1.247,1.247,0,1,0-2.493,0v4.267H368a1.248,1.248,0,0,0,0,2.5h4.267v4.265a1.247,1.247,0,1,0,2.493,0v-4.265h4.267a1.248,1.248,0,0,0,0-2.5" transform="translate(13839.507 192.818)" fill="#9ddbf4"/>
      <path id="Path_2457" data-name="Path 2457" d="M441.845,328.575h-4.267v-4.267a1.247,1.247,0,1,0-2.493,0v4.267h-4.267a1.248,1.248,0,1,0,0,2.5h4.267v4.265a1.247,1.247,0,1,0,2.493,0v-4.265h4.267a1.248,1.248,0,1,0,0-2.5" transform="translate(13926.272 316.249)" fill="#9ddbf4"/>
      <path id="Path_2458" data-name="Path 2458" d="M90.792,129.211H86.527v-4.267a1.248,1.248,0,1,0-2.5,0v4.267H79.764a1.248,1.248,0,1,0,0,2.5h4.267v4.265a1.248,1.248,0,0,0,2.5,0v-4.265h4.265a1.248,1.248,0,0,0,0-2.5" transform="translate(13441.356 40.864)" fill="#9ddbf4"/>
      <path id="Path_2459" data-name="Path 2459" d="M378.539,155.456h-4.267v-4.267a1.247,1.247,0,1,0-2.493,0v4.267h-4.267a1.248,1.248,0,1,0,0,2.5h4.267v4.265a1.247,1.247,0,1,0,2.493,0v-4.265h4.267a1.248,1.248,0,0,0,0-2.5" transform="translate(13838.826 77.116)" fill="#9ddbf4"/>
      <path id="Path_2460" data-name="Path 2460" d="M291.806,124.44a4.414,4.414,0,1,1-4.415-4.413A4.416,4.416,0,0,1,291.806,124.44Z" transform="translate(13723.784 35.796)" fill="none" stroke="#9ddbf4" stroke-miterlimit="10" stroke-width="1"/>
      <path id="Path_2461" data-name="Path 2461" d="M468.47,281.492a4.413,4.413,0,1,1-4.413-4.413A4.414,4.414,0,0,1,468.47,281.492Z" transform="translate(13967.816 252.734)" fill="none" stroke="#9ddbf4" stroke-miterlimit="10" stroke-width="1"/>
      <circle id="Ellipse_45" data-name="Ellipse 45" cx="4.413" cy="4.413" r="4.413" transform="translate(13686.764 202.895) rotate(-76.718)" fill="none" stroke="#9ddbf4" stroke-miterlimit="10" stroke-width="1"/>
      <circle id="Ellipse_46" data-name="Ellipse 46" cx="4.413" cy="4.413" r="4.413" transform="translate(13538.674 616.804)" fill="none" stroke="#9ddbf4" stroke-miterlimit="10" stroke-width="1"/>
      <rect id="Rectangle_580" data-name="Rectangle 580" width="1379.322" height="882.967" transform="translate(13501.684 -130)" fill="none"/>
      <path id="Path_2462" data-name="Path 2462" d="M484.913,429.538c-.024,1.024-.048,2.072-.071,3.072-.4,20.146-1.5,35.148-2.024,40.768,0,.072-.024.167-.024.214a38.581,38.581,0,0,1-.881,5.31c-2.024,8.739-6.953,17.955-14.145,26.052a73.344,73.344,0,0,1-32.41,21.17c-.5.167-1.048.31-1.643.452a77.745,77.745,0,0,1-10.978,1.715h-.048c-3.239.357-6.882.619-10.835.833-2.691.143-5.5.286-8.43.381-1.286.048-2.6.1-3.953.143-.024,0-.048-.024-.071,0-7.192.214-15,.286-23.146.286-21.551,0-45.459-.619-66.367-1.333-1.1-.048-2.191-.048-3.262,0-13.192.428-35.386.738-60.366.976H246c-6.549.071-13.264.143-20.075.167H225.8c-.333,0-.643,0-.952.024-2.762.024-5.572.024-8.358.048h-2.1c-12.169.071-24.409.143-36.053.19-22.861.071-41.792-15.86-43.221-36.315-.643-9.287-1.143-17.241-1.429-20.1-1.929-19.932-11.621-167.24,33.886-232.393,19.384-27.719,54.961-39.125,89.442-43.078,2.1-.238,4.191-.452,6.263-.619a300.285,300.285,0,0,1,30.552-1.119c2.977.024,5.906.1,8.739.214,1.167.024,2.334.071,3.477.119,1.476.048,2.929.048,4.382,0,2.429-.119,4.906-.214,7.477-.286a289.772,289.772,0,0,1,52.056,3.143,173.8,173.8,0,0,1,33.624,8.644c1.786.667,3.548,1.357,5.287,2.119,16.05,6.811,30.147,16.717,40.054,30.862,21.146,30.267,30.362,78.3,33.982,123.043.81,9.859,1.334,19.574,1.667,28.909.119,3.215.191,6.358.262,9.478.19,9.573.19,18.646.071,26.909" transform="translate(13514.554 141.196)" fill="#1a6cf3"/>
      <path id="Path_2463" data-name="Path 2463" d="M399.495,249.721c-22.863-39.1-75-43-108.681-40.952-33.677-2.048-85.818,1.855-108.681,40.952-35.16,60.119-27.68,196.056-26.183,214.435S171.66,504.7,192.6,512.632c12.728,4.82,62.6-7.118,99.089-8.673,36.491,1.555,84.6,13.493,97.329,8.673,20.946-7.93,35.16-30.1,36.656-48.476s8.975-154.317-26.183-214.435" transform="translate(13545.981 157.779)" fill="#0e60d8"/>
      <g id="Group_954" data-name="Group 954" transform="translate(13680.396 371.491)" opacity="0.3" style="mix-blend-mode: screen;isolation: isolate">
        <g id="Group_953" data-name="Group 953">
          <g id="Group_952" data-name="Group 952" clip-path="url(#clip-path-6)">
            <path id="Path_2464" data-name="Path 2464" d="M165.8,216.621c-11.507,10.271-21.146,26.333-19.736,41.228.336,3.56,1.753,7.556,5.422,8.942,8.368,3.16,12.223-6.015,13.871-11.607a86.1,86.1,0,0,1,11.447-24.3c3.162-4.632,11.037-12.33,5.839-17.938-4.589-4.953-11.3-1.269-16.843,3.679" transform="translate(-145.927 -210.593)" fill="#8589f7"/>
          </g>
        </g>
      </g>
      <g id="Group_957" data-name="Group 957" transform="translate(13722.513 353.574)" opacity="0.3" style="mix-blend-mode: screen;isolation: isolate">
        <g id="Group_956" data-name="Group 956">
          <g id="Group_955" data-name="Group 955" clip-path="url(#clip-path-7)">
            <path id="Path_2465" data-name="Path 2465" d="M181.451,203.39c-7.565,1.314-15.333,5.187-17.5,11.026a3.868,3.868,0,0,0,.924,4.5c3.465,2.991,7.1.422,8.97-1.3a35.75,35.75,0,0,1,10.225-6.539c2.427-1.034,7.732-2.184,6.28-5.4-1.281-2.836-5.253-2.927-8.9-2.293" transform="translate(-163.612 -203.071)" fill="#8589f7"/>
          </g>
        </g>
      </g>
      <g id="Group_960" data-name="Group 960" transform="translate(13686.069 337.527)" opacity="0.2" style="mix-blend-mode: multiply;isolation: isolate">
        <g id="Group_959" data-name="Group 959">
          <g id="Group_958" data-name="Group 958" clip-path="url(#clip-path-8)">
            <path id="Path_2466" data-name="Path 2466" d="M459.778,393.842c.572-.238,1.1-.476,1.6-.691a29.024,29.024,0,0,0,2.881-1.476c-1.477-9.192-2.977-18.36-4.548-27.433-9.6-55.866-21.98-107.612-50.532-133.068C398.84,221.935,360,213.314,360,213.314l.119.286h-.143c0-.1.024-.19.024-.286-.452-.143-.881-.333-1.31-.5a15.2,15.2,0,0,0-8.311-8.216,15.206,15.206,0,0,1,8,8.1,18.934,18.934,0,0,1-11.621-13.121,289.771,289.771,0,0,0-52.056-3.143,25.626,25.626,0,0,1-1.977,4.263,33.433,33.433,0,0,0-10.645,8.692,16.728,16.728,0,0,1-1.881.476s-1.453.143-3.977.476a16.075,16.075,0,0,1,.476-2.215c.143-.6.381-1.357.643-2.191.833-2.691,1.977-6.263,2.024-9.335-2.834-.119-5.763-.19-8.739-.214-1.262,1.953-2.6,4.382-4.048,7.144a40.862,40.862,0,0,0-2.953,8.62c-20.884,3.334-55.556,10.668-68.249,23.67-30.171,30.933-39.482,77.8-47.007,168.24l-.024.071c-.429,4.072,2.381,10.621,14.288,9.6a34.7,34.7,0,0,0,4.715-.691c2.477,10.216,6.1,19.789,11.192,27.861-6.1,34.553-4.62,64.819,22.122,65.01,0,0-6.525,9.049-8.739,18.86a28.072,28.072,0,0,0-.738,5.048c0,.262-.024.524-.024.786H412.913l-2.405-4.024-2-3.382L397.935,505.5s-12-26.48-12.788-76.321a130.577,130.577,0,0,1,2.572-17.455c5.215,21.837,19.146,71.511,41.078,87.133a25.38,25.38,0,0,0,9.12,4.31,36.053,36.053,0,0,0,6.644,1.786c7.192-8.1,12.121-17.312,14.145-26.052a38.585,38.585,0,0,0,.881-5.31c0-.048.024-.143.024-.214.524-5.62,1.619-20.622,2.024-40.768.024-1,.048-2.048.072-3.072.119-8.263.119-17.336-.072-26.909-.619-2.881-1.238-5.834-1.857-8.787" transform="translate(-148.308 -196.331)"/>
          </g>
        </g>
      </g>
      <path id="Path_2467" data-name="Path 2467" d="M155.495,299.593c-.5,4.879,3.567,13.25,22.206,8.135s3.339-35.72,3.339-35.72l-17.591,11.723Z" transform="translate(13547.634 245.73)" fill="#f48806"/>
      <path id="Path_2468" data-name="Path 2468" d="M210.65,267.266s-16.75-11.149-16.8-8.477c-.469,22.634-59.138,161.01-1.831,161.422,37.177,4.5,197.264-.412,197.264-.412s-12.538-27.626-12.845-79.555c-.129-21.58-38.946-77.026-38.946-77.026" transform="translate(13563.456 226.899)" fill="#54b8a7"/>
      <path id="Path_2469" data-name="Path 2469" d="M253.025,315.984s18.191,93.955,52.513,101.9c44.478,16.772,111.679-62.04,148.921-75.6,8.523-3.1-12.047-40-22.689-32.36-22.318,16.029-55.268,25.1-93.8,48.7-1.274-6.563-21.682-101.309-23.5-113.741-2.584-17.66-61.443,71.1-61.443,71.1" transform="translate(13682.409 205.05)" fill="#fab0ad"/>
      <path id="Path_2470" data-name="Path 2470" d="M367.361,275.354s20.794,50.22-5.587,100.987c-12.983,31.624-14.419,58.311-5.456,105.257-65.265.545-171.041-28.833-171.041-28.833V316.841l70.187-113.377,70.618.29Z" transform="translate(13588.828 151.049)" fill="#54b8a7"/>
      <path id="Path_2471" data-name="Path 2471" d="M245.042,203.463s38.849,8.628,49.186,17.85c33.191,29.614,44.531,94.705,55.075,160.52-13.99,8.2-76.131,22.108-97.191,18.422s4.817-166.971,4.817-166.971Z" transform="translate(13669.746 151.047)" fill="#54b8a7"/>
      <path id="Path_2472" data-name="Path 2472" d="M271.018,232.205a107.937,107.937,0,0,1,8.573,35.315,130.144,130.144,0,0,1-2.415,36.437c-2.629,12.009-7.57,23.234-12.2,34.374s-8.856,22.551-9.949,34.674a76.958,76.958,0,0,1,2.534-18.027,173.8,173.8,0,0,1,5.713-17.322c4.308-11.335,9.2-22.439,11.578-34.2a135.643,135.643,0,0,0,2.922-35.817,124.1,124.1,0,0,0-2.1-17.927,114.981,114.981,0,0,0-4.651-17.505" transform="translate(13685.172 190.749)" fill="#f48806"/>
      <path id="Path_2473" data-name="Path 2473" d="M182.962,326.576s-9.347,12.935-9.5,24.685H395.207l-14.981-25.1Z" transform="translate(13572.505 320.534)" fill="#182149"/>
      <path id="Path_2474" data-name="Path 2474" d="M301.317,291.079c-3.932,4.005-8.032,7.48-11.814,11.237a60.479,60.479,0,0,0-5.36,5.8,21.149,21.149,0,0,0-3.91,6.913c-.569-2.829.414-5.813,1.767-8.308a27.746,27.746,0,0,1,5.21-6.744,41.021,41.021,0,0,1,6.587-5.21,33.017,33.017,0,0,1,7.52-3.689" transform="translate(13719.764 272.073)" fill="#f39c9c"/>
      <path id="Path_2475" data-name="Path 2475" d="M326.025,300.22c27.559-23.335,16.948-27.23,42.6-39.506,12.933-6.137,9.354,5.618.891,14.133s-5.9,9.506,3.693,7.57,15.026-8.537,28.793-17.6c2.06-1.357,7.5-.517,5.7,1.781,2.772-1.122,6.746,2.941,3.779,6.994,2.489-.822,4.155,3.227,1.21,8.3,3.481-.364,1.85,7.611-5.758,15.836-9.1,10.052-14.39,18.4-48.341,22.289-5.2,2.274-19.37-1.929-21.282-.707-25.568,21.563-17.407-13.9-11.285-19.089" transform="translate(13774.584 227.772)" fill="#fab0ad"/>
      <path id="Path_2476" data-name="Path 2476" d="M336.2,269.52a12.386,12.386,0,0,1,3.351,5.656,22.881,22.881,0,0,1,1.01,6.551,33.235,33.235,0,0,1-.552,6.565c-.233,1.069-.479,2.136-.764,3.189-.362,1.033-.672,2.077-1.081,3.089l.579-6.446c.107-2.131.269-4.251.183-6.358a34.121,34.121,0,0,0-.607-6.272,18.259,18.259,0,0,0-2.117-5.972" transform="translate(13797.298 242.293)" fill="#f39c9c"/>
      <path id="Path_2477" data-name="Path 2477" d="M370.715,262.111a80.3,80.3,0,0,1-10.864,11.08,66.436,66.436,0,0,1-6.208,4.7,26.381,26.381,0,0,1-6.963,3.505,57.447,57.447,0,0,0,6.21-4.536c1.981-1.619,3.963-3.239,5.9-4.915,3.927-3.3,7.8-6.675,11.921-9.832" transform="translate(13811.775 232.059)" fill="#f39c9c"/>
      <path id="Path_2478" data-name="Path 2478" d="M371.863,265.134a63.232,63.232,0,0,1-10.437,10.552,49.741,49.741,0,0,1-6.118,4.27,24.029,24.029,0,0,1-6.872,2.9,51.637,51.637,0,0,0,6.175-3.967c1.969-1.434,3.9-2.931,5.791-4.475,3.827-3.046,7.532-6.244,11.461-9.278" transform="translate(13814.201 236.235)" fill="#f39c9c"/>
      <path id="Path_2479" data-name="Path 2479" d="M372.041,268.617a43.049,43.049,0,0,1-9.88,10.292,39.9,39.9,0,0,1-6.137,3.755,24.834,24.834,0,0,1-6.842,2.15,62.858,62.858,0,0,0,6.234-3.274c1.969-1.245,3.9-2.539,5.763-3.941,3.734-2.8,7.27-5.856,10.861-8.982" transform="translate(13815.234 241.046)" fill="#f39c9c"/>
      <path id="Path_2480" data-name="Path 2480" d="M165.861,245.628s-27.08,150.826,56.3,151.13c14.469.617,30.338-14.409,44.44-37.194l-12.069-17.379-33.4-40.825Z" transform="translate(13556.207 209.291)" fill="#fab0ad"/>
      <path id="Path_2481" data-name="Path 2481" d="M330.954,241.21s-10.335,19.074-23.6,42.816c-.643,1.119-1.262,2.215-1.905,3.358v.024c-21.122,37.649-48.6,84.965-54.437,87.061a110.789,110.789,0,0,0-32.243-2.619c-.1,0-.214.024-.31.024-.524.024-1.024.071-1.548.119-.143,0-.262.024-.4.024-15.764,1.214-31.41,5.406-44.031,12.073-.048.024-.119.048-.167.072-.476.262-.929.5-1.381.762-.048.024-.119.071-.167.1a64.059,64.059,0,0,0-15.288,11.526C163,305.886,172.311,258.95,202.506,227.969c12.692-13,47.364-20.336,68.249-23.67.619-.119,1.191-.214,1.786-.286h.024c3.572-.572,6.668-1,9.073-1.31q.929-.143,1.715-.214c2.524-.333,3.977-.476,3.977-.476l.738.667.1.071,1.143,1.024.071.071,25.718,23.1,1.31,1.191Z" transform="translate(13547.662 149.044)" fill="#54b8a7"/>
      <path id="Path_2482" data-name="Path 2482" d="M155.475,348.814a51.127,51.127,0,0,1,10.3-9.2,79.2,79.2,0,0,1,12.054-6.877,101.561,101.561,0,0,1,26.64-7.765,133.489,133.489,0,0,1,27.759-1.172,177.513,177.513,0,0,1,27.523,3.7l-1.412,1.1c.545-15.35.493-30.755.114-46.121-.207-7.687-.55-15.371-1.191-23.032a199.646,199.646,0,0,0-2.912-22.882,172.827,172.827,0,0,1,4.022,22.773c.91,7.665,1.422,15.369,1.848,23.07.452,7.7.6,15.419.66,23.13s.014,15.421-.2,23.149l-.04,1.386-1.372-.283a191.371,191.371,0,0,0-27.171-3.8,140.858,140.858,0,0,0-27.364.845,100.2,100.2,0,0,0-26.421,7c-8.4,3.546-16.469,8.308-22.844,14.978" transform="translate(13547.662 196.773)" fill="#f48806"/>
      <path id="Path_2483" data-name="Path 2483" d="M227.577,186.055s4.722,33.641-16.736,38.006c9.008,19.243,27.418,39.849,53.561,36.165s25.837-22.706,26.247-32.717c-10.449-3.527-16.719-12.454-13.614-32.924-24.735-.819-49.458-8.53-49.458-8.53" transform="translate(13624.139 127.001)" fill="#e89797"/>
      <path id="Path_2484" data-name="Path 2484" d="M300.01,188.194c-2.241,17.955-16.414,30.969-31.657,29.069s-25.785-18-23.544-35.956,16.412-30.971,31.655-29.069,25.785,18,23.547,35.956" transform="translate(13670.644 80.034)" fill="#90d4c8"/>
      <path id="Path_2485" data-name="Path 2485" d="M298.311,187.982c-2.241,17.955-16.414,30.971-31.657,29.069s-25.785-18-23.547-35.956,16.415-30.971,31.66-29.069,25.785,18,23.544,35.956" transform="translate(13668.294 79.741)" fill="#54b8a7"/>
      <path id="Path_2486" data-name="Path 2486" d="M338.143,238.475c11.125-18.62,16.6-41.4,11.1-62.381-11.521-43.966-60.652-66.734-103.016-55.075a84.3,84.3,0,0,0-18.467,7.539q-3.518,1.95-6.861,4.208c-15.4,10.4-22.742,31.691-24.82,49.412-2.719,23.194,4.5,58.447,27.778,69.835" transform="translate(13603 32.982)" fill="#182149"/>
      <path id="Path_2487" data-name="Path 2487" d="M337.358,209.534s.85,75.1-70.516,64.415c-37.422-7.539-53.811-38.168-50.189-62.481-9.263-2.674-17.962-30.812-17.962-30.812l19.039-26.511s11.056-18.662,14.543-18.255l38.916,4.52Z" transform="translate(13607.356 57.697)" fill="#fab0ad"/>
      <path id="Path_2488" data-name="Path 2488" d="M338.652,228.245s-60.388-8.935-79.3-57.292c-12.269,19.579-16.245,28.54-29.693,31.824-6.32-12.526-30.9,1.846-11.623,20.5-31.269-6.094-17.412-56.944-17.412-56.944l17.984-33.869,53.473-6.753s35.344-4.289,44.328,13.373,21.768,31.888,24.782,44.193c2.679,10.937-2.538,44.971-2.538,44.971" transform="translate(13605.799 43.01)" fill="#182149"/>
      <path id="Path_2489" data-name="Path 2489" d="M235.123,169.233c.655,3.42,5.267,5.108,4.4,8.973-.593,2.615-3.258,3.851-5.606,4.305a.292.292,0,0,1-.171-.55q4.561-1.768,3.377-8.237a15.023,15.023,0,0,1-1.526-2.081,4.606,4.606,0,0,1-.671-2.374.1.1,0,0,1,.2-.036" transform="translate(13655.552 103.653)" fill="#d57775"/>
      <path id="Path_2490" data-name="Path 2490" d="M244.368,162.718c5.194-3.391,16.281-3.189,17.884,4.248.1.472-.572.529-.755.174-3.393-6.5-10.9-6.087-16.955-4.091-.2.064-.36-.21-.174-.331" transform="translate(13670.338 91.848)" fill="#0b2042"/>
      <path id="Path_2491" data-name="Path 2491" d="M244.156,163.24c-7.8-7.12-18.593-4.555-26.706.34-.341.2-.772-.31-.5-.607,6.584-7.218,21.077-7.289,27.678-.238.267.283-.176.774-.472.5" transform="translate(13632.459 87.562)" fill="#0b2042"/>
      <path id="Path_2492" data-name="Path 2492" d="M235.66,181.6c.831-2.05.567-4.5-1.45-7.177-3.465-4.6-10.042-6.844-15.621-6.7a7.578,7.578,0,0,0-6.353,3.231,7.9,7.9,0,0,0-.953,4.394,13.325,13.325,0,0,0,9.606,12.216c5,1.267,12.673-.774,14.771-5.965" transform="translate(13624.738 101.672)" fill="#f39c9c"/>
      <path id="Path_2493" data-name="Path 2493" d="M262.579,182.005a7.186,7.186,0,0,0-.619-6.187,10.581,10.581,0,0,0-10.4-5.02,5.894,5.894,0,0,0-4.541,3.15,9.109,9.109,0,0,0-.886,3.882c-.15,4.81,2.31,9.24,5.968,10.154,3.377.841,8.763-1.341,10.478-5.979" transform="translate(13672.88 105.838)" fill="#f39c9c"/>
      <path id="Path_2494" data-name="Path 2494" d="M253.72,168.537c-.233,4.315-1.738,8.156-6.446,8.461a3.543,3.543,0,0,1-3.255-2.786c-.526-2.548.943-3.8,1.224-6.16.648-5.377,8.78-5.022,8.477.486" transform="translate(13669.813 96.821)" fill="#0b2042"/>
      <path id="Path_2495" data-name="Path 2495" d="M248.795,167.277c-.062,1.131-.455,2.141-1.691,2.219a.929.929,0,0,1-.855-.731c-.138-.667.248-1,.322-1.615a1.115,1.115,0,0,1,2.224.126" transform="translate(13673.009 99.493)" fill="#fff"/>
      <path id="Path_2496" data-name="Path 2496" d="M230.836,166.366c.131,4.986-1.243,9.547-6.627,10.337-1.731.255-3.551-1.334-4.008-2.9-.841-2.884.729-4.463.833-7.2.241-6.249,9.632-6.6,9.8-.233" transform="translate(13636.728 93.428)" fill="#0b2042"/>
      <path id="Path_2497" data-name="Path 2497" d="M225.4,165.142c.036,1.307-.324,2.505-1.738,2.71a1.072,1.072,0,0,1-1.05-.76c-.221-.757.191-1.172.219-1.888a1.286,1.286,0,0,1,2.569-.062" transform="translate(13640.308 96.44)" fill="#fff"/>
      <path id="Path_2498" data-name="Path 2498" d="M260.568,183.566c.131,3.046-4.7,16.386-15.6,16.879-9.14.414-23.423-10.413-19.262-20.113,2.341-3.543,34.732.191,34.865,3.234" transform="translate(13643.644 117.105)" fill="#8b4646"/>
      <path id="Path_2499" data-name="Path 2499" d="M225.322,183.916a10.829,10.829,0,0,1,6.2-2.041,30.494,30.494,0,0,1,14.633,2.4,22.108,22.108,0,0,1,8.458,6.906,14.34,14.34,0,0,1-10.147,5.234c-6.749.3-16.286-5.525-19.143-12.5" transform="translate(13644.143 121.132)" fill="#f16b6b"/>
      <path id="Path_2500" data-name="Path 2500" d="M199.415,205.346a78.336,78.336,0,0,1,2.91-29.143,76.3,76.3,0,0,1,5.422-13.955,70.358,70.358,0,0,1,19.027-23.675,68.186,68.186,0,0,1,13.209-8.016,64.765,64.765,0,0,1,14.586-4.858,78.987,78.987,0,0,1,15.086-1.886c10.025-.157,20.158.555,29.864,3.465,9.663,2.817,18.993,7.373,26.595,14.093A59.82,59.82,0,0,1,336.189,152.6a58.956,58.956,0,0,1,6.718,13.345,64.261,64.261,0,0,1,2.981,28.921,70.523,70.523,0,0,0-6.332-27.552,56.075,56.075,0,0,0-17.307-21.158,66.314,66.314,0,0,0-24.747-11.2,87.128,87.128,0,0,0-27.321-1.841,77.254,77.254,0,0,0-26.137,6.349,58.44,58.44,0,0,0-11.53,6.675,65.929,65.929,0,0,0-10.006,8.935,83.674,83.674,0,0,0-8.28,10.828,102.8,102.8,0,0,0-6.553,12.238,117.269,117.269,0,0,0-8.258,27.2" transform="translate(13607.892 41)" fill="#90d4c8"/>
      <path id="Path_2501" data-name="Path 2501" d="M199.886,169.333s-4.348,34.743,43.912,41.952" transform="translate(13608.867 103.903)" fill="none" stroke="#182149" stroke-miterlimit="10" stroke-width="1.385"/>
      <path id="Path_2502" data-name="Path 2502" d="M234.144,192.791c-.6,3.167-5.5,4.9-10.94,3.874s-9.378-4.425-8.782-7.592,5.5-4.9,10.942-3.874,9.378,4.424,8.78,7.592" transform="translate(13629.003 125.411)" fill="#182149"/>
      <path id="Path_2503" data-name="Path 2503" d="M245.367,182.975c.136,18.1-12.207,32.857-27.569,32.972s-27.923-14.459-28.061-32.553,12.207-32.857,27.569-32.974,27.926,14.462,28.061,32.555" transform="translate(13594.985 77.778)" fill="#54b8a7"/>
      <path id="Path_2504" data-name="Path 2504" d="M244.116,182.968c.136,18.1-12.207,32.857-27.569,32.974s-27.923-14.462-28.061-32.553,12.207-32.857,27.568-32.974,27.926,14.462,28.061,32.553" transform="translate(13593.258 77.771)" fill="#90d4c8"/>
      <path id="Path_2505" data-name="Path 2505" d="M228.327,176.218c.088,11.595-7.823,21.056-17.665,21.129s-17.9-9.266-17.981-20.86,7.82-21.056,17.665-21.129,17.893,9.266,17.981,20.86" transform="translate(13599.054 84.597)" fill="#54b8a7"/>
      <path id="Path_2506" data-name="Path 2506" d="M266.97,142.33a36.918,36.918,0,0,0-4.655-27.769,24.515,24.515,0,0,0-8.158-8.3c-5.634-3.277-12.535-3.322-19.041-2.893-5.906.388-11.864,1.107-17.393,3.222a33.038,33.038,0,0,0-18.4,17.041,27.951,27.951,0,0,0,.96,24.79c4.255,7.451,12.657,12.5,21.232,12.221" transform="translate(13604.87 12.521)" fill="#182149"/>
      <path id="Path_2507" data-name="Path 2507" d="M217.644,201.906a14.3,14.3,0,0,0-4.836,4.455,10.441,10.441,0,0,0-1.5,6.3c.324,4.4,1.819,8.637,2.958,12.912,2.384,8.542,5.022,17.014,7.675,25.48,5.256,16.945,10.749,33.82,16.312,50.672l16.791,50.522,17.1,50.417-2.3.267,10.5-103.454,5.444-51.706,2.841-25.837.71-6.461a15.53,15.53,0,0,0-.121-6.384c-1.1-4.191-4.482-7.5-8.4-9.282a14.939,14.939,0,0,1,8.675,9.206,15.959,15.959,0,0,1,.272,6.508L289.2,222l-2.272,25.9-4.782,51.77-9.947,103.5-.533,5.546L269.9,403.43l-16.917-50.5c-5.553-16.86-11.164-33.7-16.491-50.639-5.356-16.926-10.642-33.874-15.693-50.9-2.467-8.53-4.92-17.065-7.123-25.668-1.043-4.3-2.446-8.566-2.677-13.057a10.69,10.69,0,0,1,1.679-6.394,14.366,14.366,0,0,1,4.965-4.372" transform="translate(13624.354 145.996)" fill="#0b2042"/>
      <path id="Path_2508" data-name="Path 2508" d="M241.091,389.153h0a293.507,293.507,0,0,0,24.43-68.106c7.751-34.934,6.57-49.641,8.68-79.01,0,0-29.381-32.543-35.841-6.17-11.233,45.859-52.441,87.49-58.433,118.623-8.068,41.921,61.2,36.251,61.2,36.251" transform="translate(13580.535 181.566)" fill="#fab0ad"/>
      <path id="Path_2509" data-name="Path 2509" d="M243.452,226.62a45.8,45.8,0,0,1,9.728-11.845c5.56-5.36-3.41-11.116-13.478-1.5,1.931-2.655,5.046-4.67,5.9-6.658,4.051-5.91-13.052-9.471-26.878,16.052a23.188,23.188,0,0,1,.129-12.228c.893-3.4,4.3-11.618,1.681-15.224-2.517-3.474-7.782,6.472-10.261,11.214-2.288,4.375-7.434,20.725-2.9,40.821s-5.434,47.581-5.434,47.581l16.038,1.729,15.541,3.055s8.654-1.8,8.682-3.455c.3-2.831.841-12.147,3.253-16.048,8.111-13.107,10.216-20.279,6.344-31.648s4.656-18.636,8.809-23.906c3.679-4.67-8.1-9.273-17.148,2.06" transform="translate(13611.836 138.661)" fill="#fab0ad"/>
      <path id="Path_2510" data-name="Path 2510" d="M298.391,236.453c0,.143-.024.286-.024.4-.071.548-.1,1.024-.143,1.4-.143,2.762-.286,5.453-.429,8.1-.929,18.6-1.691,33.315-7.573,59.819a293.714,293.714,0,0,1-23.265,65.748l.191.286-.262.452c-.262.4-.524.81-.762,1.191l-.31.452.071,2.143-.786.048s-.262.024-.714.048c-10.168,15.55-25.528,33.72-41.768,33.72-.31,0-.6,0-.9-.024-16.717-.048-30.267-6.168-40.292-18.193-11.526-13.835-17.1-34.1-19.455-54.7.452-.262.9-.5,1.381-.762.048-.024.119-.048.167-.072,2.262,20.527,7.739,40.768,19.17,54.485,9.692,11.621,22.837,17.55,39.054,17.622,12.454.572,27.195-11.311,41.506-33.315l.238-.333.4-.024c.119,0,.214-.024.31-.024l-.024-.976.071-.19.5-.786c.143-.238.31-.476.452-.714l-.119-.19.214-.429a292.16,292.16,0,0,0,23.337-65.82c5.858-26.361,6.6-41.006,7.525-59.557.119-2.072.238-4.215.333-6.43v-.024c.643-1.143,1.262-2.238,1.905-3.358" transform="translate(13556.626 196.617)" fill="#f39c9c"/>
      <path id="Path_2511" data-name="Path 2511" d="M290.611,225.543c-.6.762-1.286,1.572-2,2.405-2.667,3.1-5.715,6.644-7,11.049a15.665,15.665,0,0,0,.333,9.692c4.144,12.1,1.357,19.765-6.43,32.338-1.905,3.1-2.619,10.144-2.953,13.859-.643,1.119-1.262,2.215-1.905,3.358.048-.572.071-1.119.1-1.691.048-.4.1-.857.143-1.4.357-4,1.048-11.43,3.239-14.978,8.5-13.764,9.859-20.408,6.263-30.957a17.024,17.024,0,0,1-.1-11.407c1.476-4.429,4.525-7.977,7.049-10.906.714-.833,1.4-1.619,1.977-2.381a1.657,1.657,0,0,0-.262-2.619c-2.286-1.81-9.43-2.024-15.6,5.715l-1.333-.929a45.92,45.92,0,0,1,9.906-12.073c1.5-1.453,1.834-3.048.81-4.1-1.762-1.857-7.192-1.905-13.192,3.834l-1.238-1.072a25.26,25.26,0,0,1,3.143-3.381,12.664,12.664,0,0,0,2.667-3.12,1.978,1.978,0,0,0,.4-1.929c-.381-.714-1.548-1.191-3.072-1.191h-.071c-4.215,0-10.6,3.048-16.907,11.049a61.09,61.09,0,0,0-5.763,8.835l-.976,1.786-.524-1.953a22.226,22.226,0,0,1-.476-9.811,24.389,24.389,0,0,1,.6-2.858c.167-.619.4-1.381.667-2.262,1.143-3.6,3.048-9.644,1.143-12.264-.286-.4-.524-.4-.619-.381-2.334.167-6.787,8.692-8.263,11.478a37.431,37.431,0,0,0-2.6,7.6h-.024a71.68,71.68,0,0,0-.191,32.672c4.286,19-4.334,44.745-5.31,47.6-7.263,18.812-18.169,36.315-28.719,53.246-4.382,7.049-8.525,13.716-12.216,20.17l-7.644,14.169-1.548,2.881-1.453-.786,1.048-1.953,8.168-15.121c3.715-6.5,7.858-13.169,12.264-20.217,10.5-16.86,21.36-34.315,28.552-52.937.976-2.81,9.43-28.123,5.239-46.7a73.55,73.55,0,0,1,.024-32.743,40.865,40.865,0,0,1,2.953-8.62c3.81-7.287,6.906-12.192,9.6-12.383a2.292,2.292,0,0,1,2.072,1.048c2.381,3.31.4,9.6-.9,13.74-.262.833-.5,1.6-.643,2.191a16.083,16.083,0,0,0-.476,2.215,21.109,21.109,0,0,0-.119,7.525,62,62,0,0,1,4.929-7.263c6.691-8.406,13.573-11.6,18.146-11.6h.071c2.191.024,3.834.762,4.5,2.072a3.319,3.319,0,0,1-.429,3.477,6.327,6.327,0,0,1-.786,1.262c4.191-1.786,7.6-1.072,9.168.548,1.286,1.334,1.81,3.834-.9,6.477a36.844,36.844,0,0,0-5.644,5.858c5.072-3.262,10.121-3.072,12.6-1.1a3.292,3.292,0,0,1,.524,4.929" transform="translate(13582.457 138.183)" fill="#f39c9c"/>
      <path id="Path_2512" data-name="Path 2512" d="M233.582,200.375a11.856,11.856,0,0,0-3.827,2.257,33.469,33.469,0,0,0-3.348,2.929,46.642,46.642,0,0,0-5.725,6.787,58.106,58.106,0,0,0-4.717,7.558c-1.464,2.608-2.648,5.358-3.953,8.1.343-1.474.722-2.948,1.174-4.4.522-1.424,1-2.872,1.648-4.255a46.446,46.446,0,0,1,4.52-7.961,39.16,39.16,0,0,1,6.21-6.758c2.379-1.86,4.944-3.858,8.018-4.26" transform="translate(13625.756 146.782)" fill="#f39c9c"/>
      <path id="Path_2513" data-name="Path 2513" d="M232.818,205.2a17.614,17.614,0,0,0-6.744,4.627,31.069,31.069,0,0,0-4.674,6.682,42.3,42.3,0,0,0-3.127,7.6,36.56,36.56,0,0,0-1.569,8.166,22.69,22.69,0,0,1,.329-8.485,31.027,31.027,0,0,1,2.924-8.051,24.879,24.879,0,0,1,5.234-6.827,14.049,14.049,0,0,1,7.627-3.715" transform="translate(13631.879 153.443)" fill="#f39c9c"/>
      <path id="Path_2514" data-name="Path 2514" d="M179.761,303.587c-1.414-5.851-.748-12.078.9-17.858a42.27,42.27,0,0,1,3.489-8.33,40.57,40.57,0,0,1,5.141-7.361c-1.414,2.638-2.819,5.232-4,7.927a64.62,64.62,0,0,0-3.065,8.228,60.254,60.254,0,0,0-1.891,8.566,51.1,51.1,0,0,0-.579,8.828" transform="translate(13580.144 243.01)" fill="#f39c9c"/>
      <g id="Group_972" data-name="Group 972" transform="translate(13817.401 487.44)" opacity="0.1" style="mix-blend-mode: multiply;isolation: isolate">
        <g id="Group_971" data-name="Group 971">
          <g id="Group_970" data-name="Group 970" clip-path="url(#clip-path-9)">
            <path id="Path_2515" data-name="Path 2515" d="M454.4,433.393H218.392a14.931,14.931,0,0,1-14.933-14.931V274.218a14.933,14.933,0,0,1,14.933-14.933H454.4a14.932,14.932,0,0,1,14.931,14.933V418.462A14.93,14.93,0,0,1,454.4,433.393" transform="translate(-203.459 -259.285)"/>
            <path id="Path_2516" data-name="Path 2516" d="M464,342.377H207.084a3.01,3.01,0,0,1-3.01-3.01v-3.955a3.011,3.011,0,0,1,3.01-3.012H464a3.011,3.011,0,0,1,3.01,3.012v3.955a3.01,3.01,0,0,1-3.01,3.01" transform="translate(-202.609 -158.291)"/>
            <g id="Group_963" data-name="Group 963" transform="translate(137.966 59.799)" style="mix-blend-mode: multiply;isolation: isolate">
              <g id="Group_962" data-name="Group 962">
                <g id="Group_961" data-name="Group 961" clip-path="url(#clip-path-10)">
                  <path id="Path_2517" data-name="Path 2517" d="M285.345,306.292a16.352,16.352,0,0,1-7.22,1.653,16.75,16.75,0,0,1-16.729-16.75,16.323,16.323,0,0,1,1.465-6.8,29.84,29.84,0,0,1,22.484,21.9" transform="translate(-261.396 -284.398)"/>
                </g>
              </g>
            </g>
            <g id="Group_966" data-name="Group 966" transform="translate(114.003 69.673)" style="mix-blend-mode: multiply;isolation: isolate">
              <g id="Group_965" data-name="Group 965">
                <g id="Group_964" data-name="Group 964" clip-path="url(#clip-path-11)">
                  <path id="Path_2518" data-name="Path 2518" d="M289.186,307.463a18.927,18.927,0,0,1-37.854,0c0-.193,0-.4.014-.6a18.912,18.912,0,0,1,18.92-18.322,17.841,17.841,0,0,1,4.11.464,10.344,10.344,0,0,0-.926,4.3,10.611,10.611,0,0,0,10.595,10.611,10.372,10.372,0,0,0,4.574-1.048,17.684,17.684,0,0,1,.552,3.991c.014.2.014.4.014.6" transform="translate(-251.333 -288.544)"/>
                </g>
              </g>
            </g>
            <path id="Path_2519" data-name="Path 2519" d="M289.186,306.961c0,.2,0,.4-.014.6a18.921,18.921,0,0,1-37.825,0c-.014-.193-.014-.4-.014-.6a18.925,18.925,0,0,1,18.934-18.92,19.134,19.134,0,0,1,4.663.583,8.971,8.971,0,0,0-.552,1.076,10.345,10.345,0,0,0-.926,4.3,10.611,10.611,0,0,0,10.595,10.611,10.371,10.371,0,0,0,4.574-1.048c.088-.043.164-.074.238-.119a19.413,19.413,0,0,1,.329,3.512" transform="translate(-137.33 -219.564)"/>
            <g id="Group_969" data-name="Group 969" transform="translate(19.265 174.108)" style="mix-blend-mode: multiply;isolation: isolate">
              <g id="Group_968" data-name="Group 968">
                <g id="Group_967" data-name="Group 967" clip-path="url(#clip-path-12)">
                  <line id="Line_98" data-name="Line 98" x2="229.323" transform="translate(0.001)"/>
                </g>
              </g>
            </g>
          </g>
        </g>
      </g>
      <path id="Path_2521" data-name="Path 2521" d="M459.762,433.393H223.754a14.932,14.932,0,0,1-14.933-14.931V274.218a14.934,14.934,0,0,1,14.933-14.933H459.762a14.932,14.932,0,0,1,14.931,14.933V418.462a14.93,14.93,0,0,1-14.931,14.931" transform="translate(13621.349 228.155)" fill="#2394bc"/>
      <path id="Path_2522" data-name="Path 2522" d="M469.368,342.377H212.447a3.01,3.01,0,0,1-3.01-3.01v-3.955a3.011,3.011,0,0,1,3.01-3.012H469.368a3.011,3.011,0,0,1,3.01,3.012v3.955a3.01,3.01,0,0,1-3.01,3.01" transform="translate(13622.2 329.149)" fill="#b0eeff"/>
      <g id="Group_975" data-name="Group 975" transform="translate(13968.139 547.24)" style="mix-blend-mode: multiply;isolation: isolate">
        <g id="Group_974" data-name="Group 974">
          <g id="Group_973" data-name="Group 973" clip-path="url(#clip-path-13)">
            <path id="Path_2523" data-name="Path 2523" d="M290.707,306.292a16.353,16.353,0,0,1-7.22,1.653,16.75,16.75,0,0,1-16.729-16.75,16.359,16.359,0,0,1,1.462-6.8,29.839,29.839,0,0,1,22.487,21.9" transform="translate(-266.76 -284.398)" fill="#fff"/>
          </g>
        </g>
      </g>
      <g id="Group_978" data-name="Group 978" transform="translate(13944.173 557.113)" style="mix-blend-mode: multiply;isolation: isolate">
        <g id="Group_977" data-name="Group 977">
          <g id="Group_976" data-name="Group 976" clip-path="url(#clip-path-11)">
            <path id="Path_2524" data-name="Path 2524" d="M294.548,307.463a18.927,18.927,0,0,1-37.853,0c0-.193,0-.4.014-.6a18.912,18.912,0,0,1,18.92-18.322,17.842,17.842,0,0,1,4.11.464,10.343,10.343,0,0,0-.926,4.3,10.611,10.611,0,0,0,10.594,10.611,10.372,10.372,0,0,0,4.574-1.048,17.686,17.686,0,0,1,.552,3.991c.014.2.014.4.014.6" transform="translate(-256.695 -288.544)" fill="#a2a9ad"/>
          </g>
        </g>
      </g>
      <path id="Path_2525" data-name="Path 2525" d="M294.548,306.961c0,.2,0,.4-.014.6a18.922,18.922,0,0,1-37.825,0c-.014-.193-.014-.4-.014-.6a18.925,18.925,0,0,1,18.934-18.92,19.133,19.133,0,0,1,4.663.583,8.975,8.975,0,0,0-.552,1.076,10.343,10.343,0,0,0-.926,4.3,10.611,10.611,0,0,0,10.594,10.611,10.371,10.371,0,0,0,4.574-1.048c.088-.043.164-.074.238-.119a19.415,19.415,0,0,1,.329,3.512" transform="translate(13687.479 267.876)" fill="#fff"/>
      <g id="Group_981" data-name="Group 981" transform="translate(13844.965 660.37)" style="mix-blend-mode: multiply;isolation: isolate">
        <g id="Group_980" data-name="Group 980">
          <g id="Group_979" data-name="Group 979" clip-path="url(#clip-path-15)">
            <path id="Path_2526" data-name="Path 2526" d="M215.034,333.083c19.927-.486,39.851-.714,59.778-.9l59.778-.276,59.778.272,29.888.329,29.888.579-29.888.579-29.888.329-59.778.272-59.778-.276c-19.927-.188-39.851-.417-59.778-.9" transform="translate(-215.034 -331.904)" fill="#a2a9ad"/>
          </g>
        </g>
      </g>
      <path id="Path_2527" data-name="Path 2527" d="M313.442,287.616c-1.531-5.086-2.715-10.225-3.774-15.383-1.084-5.156-1.96-10.342-2.8-15.536-.769-5.2-1.5-10.414-2.015-15.655-.543-5.239-.96-10.5-1.026-15.81,1.536,5.086,2.719,10.225,3.779,15.383,1.083,5.156,1.96,10.344,2.791,15.538.764,5.2,1.491,10.413,2.01,15.655.541,5.239.96,10.5,1.031,15.807" transform="translate(13752.587 181.119)" fill="#1a6cf3"/>
      <path id="Path_2528" data-name="Path 2528" d="M321.516,245.892a10.848,10.848,0,0,1-.471-3.758,15.934,15.934,0,0,1,1.741-6.832,10.8,10.8,0,0,1,2.224-3.07,10.764,10.764,0,0,1,.476,3.76,15.1,15.1,0,0,1-.493,3.512,15.414,15.414,0,0,1-1.257,3.317,10.918,10.918,0,0,1-2.219,3.07" transform="translate(13776.354 190.788)" fill="#1a6cf3"/>
      <path id="Path_2529" data-name="Path 2529" d="M317.365,271.626a45.134,45.134,0,0,1,.593-7.925,78.022,78.022,0,0,1,3.872-15.164,44.473,44.473,0,0,1,3.289-7.234,44.466,44.466,0,0,1-.588,7.925,73.057,73.057,0,0,1-1.557,7.677,74.449,74.449,0,0,1-2.324,7.485,44.886,44.886,0,0,1-3.284,7.237" transform="translate(13771.269 203.315)" fill="#1a6cf3"/>
      <path id="Path_2530" data-name="Path 2530" d="M325.756,283.846c3.92-4.517,8.075-8.773,12.314-12.935,4.222-4.179,8.585-8.2,12.976-12.2,4.434-3.943,8.9-7.856,13.5-11.611,4.589-3.774,9.263-7.454,14.174-10.866-3.917,4.52-8.07,8.775-12.309,12.938-4.224,4.179-8.587,8.2-12.981,12.195-4.436,3.941-8.9,7.854-13.507,11.609-4.589,3.772-9.261,7.454-14.169,10.871" transform="translate(13782.874 196.314)" fill="#1a6cf3"/>
      <path id="Path_2531" data-name="Path 2531" d="M417.995,300.727,307.968,269.658a7.809,7.809,0,0,1-5.394-9.637l20.613-73a7.812,7.812,0,0,1,9.637-5.394L442.853,212.7a7.808,7.808,0,0,1,5.391,9.637l-20.613,73a7.809,7.809,0,0,1-9.637,5.394" transform="translate(13750.444 120.477)" fill="#54b8a7"/>
      <path id="Path_2532" data-name="Path 2532" d="M313.207,182.368c3.8,6.165,7.423,12.428,11.14,18.641l10.847,18.8c7.227,12.538,14.233,25.194,21.241,37.853l-2.186-.617,18.9-10.666c6.332-3.5,12.621-7.07,19-10.492l19.074-10.352c6.418-3.351,12.778-6.794,19.243-10.059-6.106,3.893-12.314,7.608-18.47,11.416l-18.634,11.126c-6.2,3.736-12.476,7.323-18.715,10.985l-18.812,10.811-1.407.81-.779-1.426c-6.937-12.7-13.874-25.394-20.589-38.211l-10.068-19.229c-3.258-6.465-6.606-12.881-9.778-19.391" transform="translate(13765.538 121.908)" fill="#2fa1ed"/>
      <path id="Path_2533" data-name="Path 2533" d="M303.109,234.777a247.7,247.7,0,0,1,24.044-17.691,244.845,244.845,0,0,1,25.794-15.024A244.579,244.579,0,0,1,328.9,219.753a247.669,247.669,0,0,1-25.794,15.024" transform="translate(13751.59 149.112)" fill="#2fa1ed"/>
      <path id="Path_2534" data-name="Path 2534" d="M368.419,261.458a248.712,248.712,0,0,1-14.162-26.373,246.1,246.1,0,0,1-11.276-27.728,246.069,246.069,0,0,1,14.162,26.373,248.712,248.712,0,0,1,11.276,27.728" transform="translate(13806.668 156.426)" fill="#2fa1ed"/>
      <path id="Path_2535" data-name="Path 2535" d="M119.159,162.283H275.226a8.2,8.2,0,0,0,8.2-8.2V85.85a8.2,8.2,0,0,0-8.2-8.2H119.159a8.2,8.2,0,0,0-8.2,8.2v68.23a8.2,8.2,0,0,0,8.2,8.2" transform="translate(13486.165 -22.746)" fill="#54b8a7"/>
      <g id="Group_984" data-name="Group 984" transform="translate(13615.853 74.922)" opacity="0.66">
        <g id="Group_983" data-name="Group 983">
          <g id="Group_982" data-name="Group 982" clip-path="url(#clip-path-16)">
            <line id="Line_99" data-name="Line 99" x2="35.822" transform="translate(1.19 39.476)" fill="none" stroke="#fff" stroke-linecap="round" stroke-linejoin="round" stroke-width="1"/>
            <line id="Line_100" data-name="Line 100" x2="24.244" transform="translate(108.565 26.715)" fill="none" stroke="#fff" stroke-linecap="round" stroke-linejoin="round" stroke-width="1"/>
            <line id="Line_101" data-name="Line 101" x2="96.87" transform="translate(1.19 26.715)" fill="none" stroke="#fff" stroke-linecap="round" stroke-linejoin="round" stroke-width="1"/>
            <line id="Line_102" data-name="Line 102" x2="131.62" transform="translate(1.19 13.953)" fill="none" stroke="#fff" stroke-linecap="round" stroke-linejoin="round" stroke-width="1"/>
            <line id="Line_103" data-name="Line 103" x2="40.585" transform="translate(92.225 1.192)" fill="none" stroke="#fff" stroke-linecap="round" stroke-linejoin="round" stroke-width="1"/>
            <line id="Line_104" data-name="Line 104" x2="80.934" transform="translate(1.19 1.192)" fill="none" stroke="#fff" stroke-linecap="round" stroke-linejoin="round" stroke-width="1"/>
            <line id="Line_105" data-name="Line 105" x2="85.335" transform="translate(47.475 39.476)" fill="none" stroke="#fff" stroke-linecap="round" stroke-linejoin="round" stroke-width="1"/>
          </g>
        </g>
      </g>
      <path id="Path_2536" data-name="Path 2536" d="M171.3,113.188l15.7,19.1v-19.1Z" transform="translate(13569.516 26.348)" fill="#f5bc04"/>
      <rect id="Rectangle_591" data-name="Rectangle 591" width="1548.105" height="882.967" transform="translate(13332.9 -130)" fill="none"/>
      <rect id="Rectangle_592" data-name="Rectangle 592" width="1548.105" height="882.967" transform="translate(13332.9 -130)" fill="none"/>
    </g>
  </g>
</svg>
